<?xml version="1.0" encoding="UTF-8"?>
<!DOCTYPE svg PUBLIC "-//W3C//DTD SVG 1.1//EN" "http://www.w3.org/Graphics/SVG/1.1/DTD/svg11.dtd">
<svg xmlns="http://www.w3.org/2000/svg" version="1.1" width="1956px" height="1331px" style="shape-rendering:geometricPrecision; text-rendering:geometricPrecision; image-rendering:optimizeQuality; fill-rule:evenodd; clip-rule:evenodd" xmlns:xlink="http://www.w3.org/1999/xlink">
<g><path style="opacity:0.998" fill="#262e7a" d="M 963.5,-0.5 C 970.833,-0.5 978.167,-0.5 985.5,-0.5C 1145.99,0.472067 1301.66,28.6387 1452.5,84C 1554.58,122.006 1647.25,175.34 1730.5,244C 1918.93,406.163 1973.1,605.663 1893,842.5C 1866.01,911.525 1827.68,973.191 1778,1027.5C 1706.58,1102.58 1623.75,1161.74 1529.5,1205C 1418.2,1255.24 1301.87,1287.91 1180.5,1303C 1017.58,1323.49 855.244,1319.49 693.5,1291C 577.367,1269.96 467.367,1231.62 363.5,1176C 290.378,1135.65 225.211,1084.82 168,1023.5C 47.8967,887.859 1.56339,729.859 29,549.5C 38.6979,497.737 56.6979,449.071 83,403.5C 119.339,343.135 164.506,289.968 218.5,244C 301.755,175.34 394.421,122.006 496.5,84C 647.342,28.6387 803.009,0.472067 963.5,-0.5 Z"/></g>
<g><path style="opacity:1" fill="#fee600" d="M 927.5,38.5 C 1066.13,34.2182 1202.46,49.7182 1336.5,85C 1448.82,115.008 1553.16,162.008 1649.5,226C 1657.5,232 1665.5,238 1673.5,244C 1570.04,291.923 1462.04,306.589 1349.5,288C 1312.35,280.713 1276.35,269.713 1241.5,255C 1177.73,222.078 1110.07,202.745 1038.5,197C 979.207,193.527 922.207,203.194 867.5,226C 840.447,238.513 815.781,254.513 793.5,274C 777.017,274.202 760.684,275.868 744.5,279C 712.638,286.215 680.972,294.215 649.5,303C 605.53,311.461 561.864,310.127 518.5,299C 444.15,281.827 371.483,259.327 300.5,231.5C 370.003,182.744 445.003,143.91 525.5,115C 655.664,68.7329 789.664,43.2329 927.5,38.5 Z"/></g>
<g><path style="opacity:1" fill="#fefefe" d="M 1693.5,259.5 C 1694.92,259.709 1696.26,260.209 1697.5,261C 1756.96,309.109 1805.46,366.276 1843,432.5C 1855.09,454.933 1864.92,478.266 1872.5,502.5C 1872.41,505.152 1873.08,507.485 1874.5,509.5C 1875.4,510.209 1875.74,511.209 1875.5,512.5C 1875.41,515.152 1876.08,517.485 1877.5,519.5C 1877.41,522.152 1878.08,524.485 1879.5,526.5C 1879.74,531.12 1880.74,535.453 1882.5,539.5C 1882.48,543.56 1882.98,547.56 1884,551.5C 1884.16,553.343 1884.66,554.009 1885.5,553.5C 1886.34,553.842 1886.67,554.508 1886.5,555.5C 1885.54,557.265 1885.21,559.265 1885.5,561.5C 1884.55,560.081 1884.22,558.415 1884.5,556.5C 1747.37,584.764 1614.71,627.098 1486.5,683.5C 1419.17,626.15 1352.17,568.317 1285.5,510C 1244.17,475.333 1202.83,440.667 1161.5,406C 1141.4,389.896 1120.73,374.562 1099.5,360C 1048.4,327.513 996.396,326.18 943.5,356C 907.868,377.962 874.201,402.629 842.5,430C 824.835,443.976 805.835,455.976 785.5,466C 752.511,477.986 719.845,477.32 687.5,464C 682.367,461.346 677.867,457.846 674,453.5C 673.836,450.478 674.836,447.811 677,445.5C 703.333,417.167 729.667,388.833 756,360.5C 779.671,335.819 804.838,312.986 831.5,292C 879.532,257.542 933.199,238.542 992.5,235C 1049.88,232.508 1105.55,241.175 1159.5,261C 1188.84,272.172 1217.84,284.172 1246.5,297C 1357.58,340.451 1470.58,346.117 1585.5,314C 1626.76,302.698 1666.76,288.031 1705.5,270C 1701.31,266.635 1697.31,263.135 1693.5,259.5 Z"/></g>
<g><path style="opacity:1" fill="#736752" d="M 1683.5,251.5 C 1681.46,250.969 1679.79,249.802 1678.5,248C 1680.77,248.077 1682.44,249.243 1683.5,251.5 Z"/></g>
<g><path style="opacity:1" fill="#fefefe" d="M 1162.5,978.5 C 1155.69,975.681 1149.69,971.681 1144.5,966.5C 1142.83,965.5 1141.5,964.167 1140.5,962.5C 1139.5,959.5 1137.5,957.5 1134.5,956.5C 1114,934.496 1092.33,913.663 1069.5,894C 1064.29,889.647 1058.46,886.481 1052,884.5C 1049.64,884.324 1049.14,884.991 1050.5,886.5C 1041.52,886.31 1037.69,890.643 1039,899.5C 1040.33,902.167 1041.67,904.833 1043,907.5C 1069.33,936.167 1095.67,964.833 1122,993.5C 1121.83,998.331 1119.66,1002.16 1115.5,1005C 1110.67,1008.44 1105.33,1010.61 1099.5,1011.5C 1075.88,1016.44 1052.88,1014.27 1030.5,1005C 1020.6,1001.31 1010.94,997.147 1001.5,992.5C 1008.35,973.757 1011.18,954.424 1010,934.5C 1007.56,918.013 1002.06,902.68 993.5,888.5C 979.217,863.998 958.217,848.165 930.5,841C 919.976,838.581 909.309,837.414 898.5,837.5C 901.047,810.683 894.714,786.349 879.5,764.5C 870.798,750.646 858.798,740.479 843.5,734C 828.728,728.012 813.395,724.512 797.5,723.5C 785.649,724.003 774.316,726.67 763.5,731.5C 750.714,704.56 729.714,687.726 700.5,681C 671.802,673.909 644.802,677.909 619.5,693C 617.382,694.049 615.716,695.549 614.5,697.5C 614.027,698.906 613.027,699.573 611.5,699.5C 583.527,666.458 548.86,656.624 507.5,670C 501.608,672.437 496.274,675.604 491.5,679.5C 485.908,683.084 480.574,687.084 475.5,691.5C 455.308,676.539 433.641,663.705 410.5,653C 346.157,624.44 279.823,601.44 211.5,584C 164.814,572.495 118.148,560.995 71.5,549.5C 68.7279,549.373 67.3946,547.873 67.5,545C 79.917,485.384 103.75,430.884 139,381.5C 178.675,325.992 226.175,278.325 281.5,238.5C 282.167,238.833 282.833,239.167 283.5,239.5C 276.973,244.527 270.307,249.36 263.5,254C 344.337,287.168 427.337,313.501 512.5,333C 528.113,336.256 543.779,339.256 559.5,342C 574.332,342.854 589.166,343.687 604,344.5C 617.573,343.699 631.073,342.199 644.5,340C 678.226,331.485 711.893,323.152 745.5,315C 709.891,352.27 675.391,390.437 642,429.5C 634.242,443.626 634.908,457.293 644,470.5C 656.352,484.43 671.519,493.93 689.5,499C 721.898,509.116 754.565,510.116 787.5,502C 808.797,494.187 828.464,483.521 846.5,470C 875.313,446.183 904.98,423.517 935.5,402C 950.226,392.636 965.559,384.302 981.5,377C 1005.74,368.761 1030.08,368.428 1054.5,376C 1064.11,380.139 1073.45,384.806 1082.5,390C 1099.37,401.267 1115.7,413.267 1131.5,426C 1246.55,522.71 1360.72,620.543 1474,719.5C 1496.25,748.956 1493.08,775.122 1464.5,798C 1441.34,812.055 1417.67,813.055 1393.5,801C 1346.17,758.333 1298.83,715.667 1251.5,673C 1245.87,667.516 1239.2,665.516 1231.5,667C 1226.79,671.14 1225.29,676.306 1227,682.5C 1228.27,685.433 1229.94,688.099 1232,690.5C 1275.33,732.5 1318,775.167 1360,818.5C 1376.24,844.886 1372.41,868.053 1348.5,888C 1337.33,896.915 1324.67,902.582 1310.5,905C 1292.17,907.997 1275.83,903.664 1261.5,892C 1238.83,870 1216.17,848 1193.5,826C 1180.08,813.909 1166.08,802.575 1151.5,792C 1139.05,787.45 1133.55,791.616 1135,804.5C 1136.14,808.112 1137.81,811.446 1140,814.5C 1143.3,816.795 1146.3,819.462 1149,822.5C 1177.37,853.87 1205.37,885.536 1233,917.5C 1239.44,928.199 1240.11,939.199 1235,950.5C 1216.45,974.347 1192.29,983.68 1162.5,978.5 Z"/></g>
<g><path style="opacity:1" fill="#827547" d="M 1683.5,251.5 C 1685.75,252.08 1687.42,253.413 1688.5,255.5C 1686.25,254.92 1684.58,253.587 1683.5,251.5 Z"/></g>
<g><path style="opacity:1" fill="#8c7e42" d="M 1688.5,255.5 C 1690.75,256.08 1692.42,257.413 1693.5,259.5C 1691.25,258.92 1689.58,257.587 1688.5,255.5 Z"/></g>
<g><path style="opacity:1" fill="#d6c868" d="M 1872.5,502.5 C 1873.92,504.515 1874.59,506.848 1874.5,509.5C 1873.08,507.485 1872.41,505.152 1872.5,502.5 Z"/></g>
<g><path style="opacity:1" fill="#cfbf4b" d="M 1875.5,512.5 C 1876.92,514.515 1877.59,516.848 1877.5,519.5C 1876.08,517.485 1875.41,515.152 1875.5,512.5 Z"/></g>
<g><path style="opacity:1" fill="#d5c44e" d="M 1877.5,519.5 C 1878.92,521.515 1879.59,523.848 1879.5,526.5C 1878.08,524.485 1877.41,522.152 1877.5,519.5 Z"/></g>
<g><path style="opacity:1" fill="#d0bf40" d="M 1879.5,526.5 C 1881.26,530.547 1882.26,534.88 1882.5,539.5C 1880.74,535.453 1879.74,531.12 1879.5,526.5 Z"/></g>
<g><path style="opacity:1" fill="#e2d26a" d="M 1882.5,539.5 C 1884.25,543.889 1885.25,548.556 1885.5,553.5C 1884.66,554.009 1884.16,553.343 1884,551.5C 1882.98,547.56 1882.48,543.56 1882.5,539.5 Z"/></g>
<g><path style="opacity:1" fill="#f3dc1d" d="M 71.5,549.5 C 118.148,560.995 164.814,572.495 211.5,584C 279.823,601.44 346.157,624.44 410.5,653C 433.641,663.705 455.308,676.539 475.5,691.5C 474.473,692.848 473.14,693.348 471.5,693C 448.591,677.039 424.258,663.373 398.5,652C 326.149,621.55 251.816,596.883 175.5,578C 151.87,572.176 128.203,566.509 104.5,561C 93.7398,557.976 83.0732,554.643 72.5,551C 71.944,550.617 71.6107,550.117 71.5,549.5 Z"/></g>
<g><path style="opacity:1" fill="#aa9833" d="M 1886.5,555.5 C 1888.91,569.743 1890.57,584.077 1891.5,598.5C 1890.83,597.833 1890.17,597.167 1889.5,596.5C 1889.34,584.69 1888,573.024 1885.5,561.5C 1885.21,559.265 1885.54,557.265 1886.5,555.5 Z"/></g>
<g><path style="opacity:1" fill="#fee600" d="M 1403.5,855.5 C 1403.92,852.841 1404.92,850.508 1406.5,848.5C 1445.88,853.385 1478.72,841.051 1505,811.5C 1525.89,781.01 1527.72,749.343 1510.5,716.5C 1532.95,705.951 1555.95,696.451 1579.5,688C 1680.93,650.977 1784.26,620.477 1889.5,596.5C 1890.17,597.167 1890.83,597.833 1891.5,598.5C 1895.14,681.924 1875.31,759.258 1832,830.5C 1789.21,898.163 1735.38,955.663 1670.5,1003C 1585.86,1063.82 1493.53,1110.15 1393.5,1142C 1205.78,1200.82 1014.11,1219.16 818.5,1197C 683.165,1182.17 553.832,1146.17 430.5,1089C 343.453,1047.91 265.953,993.409 198,925.5C 155.319,880.79 121.319,830.123 96,773.5C 71.4034,714.92 61.4034,653.92 66,590.5C 159.261,608.028 250.761,632.861 340.5,665C 367.422,675.293 393.755,686.96 419.5,700C 431.42,706.541 442.92,713.707 454,721.5C 452.571,728.397 451.237,735.397 450,742.5C 445.502,783.994 460.668,815.828 495.5,838C 515.62,848.656 536.954,852.156 559.5,848.5C 569.695,891.863 596.362,919.363 639.5,931C 654.136,934.139 668.803,934.306 683.5,931.5C 687.861,945.702 695.861,957.535 707.5,967C 724.611,979.721 743.611,988.387 764.5,993C 777.868,994.579 790.868,993.079 803.5,988.5C 804.167,988.833 804.833,989.167 805.5,989.5C 825.223,1031.21 858.223,1053.21 904.5,1055.5C 935.41,1055.04 961.41,1043.7 982.5,1021.5C 1015.98,1042.12 1052.31,1051.29 1091.5,1049C 1118.31,1046.85 1139.48,1035.02 1155,1013.5C 1190.33,1022.77 1221.83,1015.6 1249.5,992C 1265.58,979.678 1275.41,963.511 1279,943.5C 1325.88,949.654 1363.22,933.654 1391,895.5C 1398.48,883.228 1402.65,869.895 1403.5,855.5 Z"/></g>
<g><path style="opacity:1" fill="#f4dd22" d="M 611.5,699.5 C 610.686,701.273 609.352,701.773 607.5,701C 585.243,675.796 557.243,665.129 523.5,669C 512.316,671.006 501.649,674.506 491.5,679.5C 496.274,675.604 501.608,672.437 507.5,670C 548.86,656.624 583.527,666.458 611.5,699.5 Z"/></g>
<g><path style="opacity:1" fill="#fefefe" d="M 539.5,693.5 C 571.877,693.061 593.377,708.061 604,738.5C 605,745.5 606,752.5 607,759.5C 621.109,728.743 645.109,712.076 679,709.5C 696.506,709.593 712.673,714.093 727.5,723C 741.582,735.666 748.748,751.499 749,770.5C 750.077,775.115 752.91,776.615 757.5,775C 775.298,755.405 796.965,749.405 822.5,757C 847.58,764.079 863.08,780.245 869,805.5C 871.132,827.348 868.299,848.515 860.5,869C 860.703,871.406 861.703,873.406 863.5,875C 867.167,875.667 870.833,875.667 874.5,875C 915.745,859.859 948.245,870.693 972,907.5C 982.577,930.186 983.244,953.186 974,976.5C 959.739,1003.57 937.239,1017.24 906.5,1017.5C 871.21,1014.59 848.044,996.259 837,962.5C 835.345,954.583 834.345,946.583 834,938.5C 830.09,932.876 825.256,932.042 819.5,936C 796.214,957.057 771.214,959.057 744.5,942C 730.997,934.169 721.497,923.003 716,908.5C 714.796,900.228 714.129,891.894 714,883.5C 712.093,879.99 709.26,878.824 705.5,880C 679.379,899.894 652.713,900.561 625.5,882C 607.8,868.946 597.633,851.446 595,829.5C 594.47,818.111 594.803,806.778 596,795.5C 594.26,793.046 592.093,791.546 589.5,791C 571.304,809.108 549.971,814.108 525.5,806C 502.347,795.32 490.013,777.154 488.5,751.5C 491.369,719.636 508.369,700.303 539.5,693.5 Z"/></g>
<g><path style="opacity:1" fill="#f3dc24" d="M 879.5,764.5 C 860.428,744.051 836.761,732.218 808.5,729C 793.162,727.332 778.162,728.832 763.5,733.5C 745.223,703.012 718.223,686.178 682.5,683C 658.011,679.863 635.345,684.696 614.5,697.5C 615.716,695.549 617.382,694.049 619.5,693C 644.802,677.909 671.802,673.909 700.5,681C 729.714,687.726 750.714,704.56 763.5,731.5C 774.316,726.67 785.649,724.003 797.5,723.5C 813.395,724.512 828.728,728.012 843.5,734C 858.798,740.479 870.798,750.646 879.5,764.5 Z"/></g>
<g><path style="opacity:1" fill="#edd82a" d="M 898.5,837.5 C 909.309,837.414 919.976,838.581 930.5,841C 958.217,848.165 979.217,863.998 993.5,888.5C 970.474,855.82 938.808,839.82 898.5,840.5C 898.5,839.5 898.5,838.5 898.5,837.5 Z"/></g>
<g><path style="opacity:1" fill="#877b42" d="M 1406.5,848.5 C 1404.92,850.508 1403.92,852.841 1403.5,855.5C 1403.5,852.833 1403.5,850.167 1403.5,847.5C 1404.79,847.263 1405.79,847.596 1406.5,848.5 Z"/></g>
<g><path style="opacity:1" fill="#efd928" d="M 1134.5,956.5 C 1110.36,934.526 1086.02,912.692 1061.5,891C 1058.27,888.425 1054.61,886.925 1050.5,886.5C 1049.14,884.991 1049.64,884.324 1052,884.5C 1058.46,886.481 1064.29,889.647 1069.5,894C 1092.33,913.663 1114,934.496 1134.5,956.5 Z"/></g>
<g><path style="opacity:1" fill="#ffeb73" d="M 1134.5,956.5 C 1137.5,957.5 1139.5,959.5 1140.5,962.5C 1138.17,960.833 1136.17,958.833 1134.5,956.5 Z"/></g>
<g><path style="opacity:1" fill="#e2cd2f" d="M 1144.5,966.5 C 1149.69,971.681 1155.69,975.681 1162.5,978.5C 1154.4,977.463 1148.4,973.463 1144.5,966.5 Z"/></g>
<g><path style="opacity:1" fill="#ecd625" d="M 1001.5,992.5 C 1010.94,997.147 1020.6,1001.31 1030.5,1005C 1052.88,1014.27 1075.88,1016.44 1099.5,1011.5C 1095.44,1013.22 1091.11,1014.39 1086.5,1015C 1075.12,1015.86 1063.79,1015.52 1052.5,1014C 1034.65,1009.74 1017.65,1003.24 1001.5,994.5C 1000.23,993.743 1000.23,993.077 1001.5,992.5 Z"/></g>
</svg>
